<svg width="145" height="39" viewBox="0 0 145 39" fill="none" xmlns="http://www.w3.org/2000/svg">
<g filter="url(#filter0_dd_1174_1403)">
<g clip-path="url(#clip0_1174_1403)">
<rect x="3" y="2.5" width="32" height="32" rx="8" fill="white"/>
<rect x="3" y="2.5" width="32" height="32" rx="8" fill="url(#paint0_linear_1174_1403)"/>
<path fill-rule="evenodd" clip-rule="evenodd" d="M18.9998 4.53885C11.2892 4.53885 5.03861 10.7895 5.03861 18.5C5.03861 26.2106 11.2892 32.4612 18.9998 32.4612C26.7103 32.4612 32.9609 26.2106 32.9609 18.5C32.9609 10.7895 26.7103 4.53885 18.9998 4.53885ZM4.96094 18.5C4.96094 10.7466 11.2463 4.46118 18.9998 4.46118C26.7532 4.46118 33.0386 10.7466 33.0386 18.5C33.0386 26.2535 26.7532 32.5389 18.9998 32.5389C11.2463 32.5389 4.96094 26.2535 4.96094 18.5Z" fill="#D0D5DD"/>
<path fill-rule="evenodd" clip-rule="evenodd" d="M19 14.5779C16.8338 14.5779 15.0777 16.334 15.0777 18.5002C15.0777 20.6665 16.8338 22.4226 19 22.4226C21.1662 22.4226 22.9223 20.6665 22.9223 18.5002C22.9223 16.334 21.1662 14.5779 19 14.5779ZM15 18.5002C15 16.2911 16.7909 14.5002 19 14.5002C21.2091 14.5002 23 16.2911 23 18.5002C23 20.7094 21.2091 22.5002 19 22.5002C16.7909 22.5002 15 20.7094 15 18.5002Z" fill="#D0D5DD"/>
<path fill-rule="evenodd" clip-rule="evenodd" d="M19.0004 15.8201C17.5205 15.8201 16.3208 17.0198 16.3208 18.4997C16.3208 19.9796 17.5205 21.1793 19.0004 21.1793C20.4804 21.1793 21.6801 19.9796 21.6801 18.4997C21.6801 17.0198 20.4804 15.8201 19.0004 15.8201ZM16.2432 18.4997C16.2432 16.9769 17.4776 15.7424 19.0004 15.7424C20.5233 15.7424 21.7577 16.9769 21.7577 18.4997C21.7577 20.0225 20.5233 21.257 19.0004 21.257C17.4776 21.257 16.2432 20.0225 16.2432 18.4997Z" fill="#D0D5DD"/>
<path d="M18.9609 2.5H19.0386V34.5H18.9609V2.5Z" fill="#D0D5DD"/>
<path d="M35 18.4609L35 18.5386L3 18.5386L3 18.4609L35 18.4609Z" fill="#D0D5DD"/>
<path d="M29.6016 2.5H29.6792V34.5H29.6016V2.5Z" fill="#D0D5DD"/>
<path d="M13.6406 2.5H13.7183V34.5H13.6406V2.5Z" fill="#D0D5DD"/>
<path d="M24.2812 2.5H24.3589V34.5H24.2812V2.5Z" fill="#D0D5DD"/>
<path d="M8.32031 2.5H8.39798V34.5H8.32031V2.5Z" fill="#D0D5DD"/>
<path d="M35 29.1016L35 29.1792L3 29.1792L3 29.1016L35 29.1016Z" fill="#D0D5DD"/>
<path d="M35 13.1406L35 13.2183L3 13.2183L3 13.1406L35 13.1406Z" fill="#D0D5DD"/>
<path d="M35 23.7812L35 23.8589L3 23.8589L3 23.7812L35 23.7812Z" fill="#D0D5DD"/>
<path d="M35 7.82031L35 7.89798L3 7.89798L3 7.82031L35 7.82031Z" fill="#D0D5DD"/>
<g filter="url(#filter1_dd_1174_1403)">
<circle cx="19" cy="18.5" r="8" fill="url(#paint1_linear_1174_1403)"/>
</g>
<path d="M3 18.5H35V21.7C35 26.1804 35 28.4206 34.1281 30.1319C33.3611 31.6372 32.1372 32.8611 30.6319 33.6281C28.9206 34.5 26.6804 34.5 22.2 34.5H15.8C11.3196 34.5 9.07937 34.5 7.36808 33.6281C5.86278 32.8611 4.63893 31.6372 3.87195 30.1319C3 28.4206 3 26.1804 3 21.7V18.5Z" fill="white" fill-opacity="0.2"/>
</g>
<rect x="3.1" y="2.6" width="31.8" height="31.8" rx="7.9" stroke="#D0D5DD" stroke-width="0.2"/>
</g>
<path d="M46.488 10.9946H53.5846C54.6682 10.9946 55.6068 11.193 56.4004 11.5898C57.2092 11.9866 57.8273 12.559 58.2546 13.3068C58.6972 14.0546 58.9185 14.9398 58.9185 15.9623C58.9185 16.5575 58.8193 17.1222 58.6209 17.6563C58.4225 18.1905 58.1326 18.6788 57.751 19.1214C57.3847 19.5487 56.9422 19.8921 56.4233 20.1516C56.9727 20.411 57.4 20.762 57.7052 21.2046C58.0105 21.6472 58.2394 22.2271 58.392 22.9444L58.9414 25.5542C58.9567 25.6152 58.9643 25.6762 58.9643 25.7373C59.0406 26.0883 59.1322 26.4164 59.239 26.7217C59.3611 27.0269 59.4832 27.2863 59.6053 27.5H56.2859C56.1791 27.3169 56.0799 27.1032 55.9883 26.859C55.912 26.5996 55.851 26.3401 55.8052 26.0807L55.3702 23.5396C55.2634 22.9139 55.065 22.4103 54.775 22.0287C54.5003 21.6319 54.1035 21.342 53.5846 21.1588C53.081 20.9757 52.44 20.8841 51.6617 20.8841H49.5556V27.5H46.488V10.9946ZM53.1497 18.2057C53.6991 18.2057 54.1722 18.1142 54.569 17.931C54.9658 17.7479 55.2634 17.4884 55.4618 17.1527C55.6754 16.8169 55.7823 16.4201 55.7823 15.9623C55.7823 15.245 55.5457 14.6879 55.0726 14.2911C54.6148 13.8943 53.9738 13.6959 53.1497 13.6959H49.5556V18.2057H53.1497ZM63.0992 21.5022C63.0992 22.6774 63.3892 23.6007 63.9691 24.2722C64.5491 24.9284 65.335 25.2566 66.327 25.2566C66.9986 25.2566 67.5632 25.1116 68.0211 24.8216C68.4942 24.5316 68.7994 24.1272 68.9368 23.6083H71.7983C71.661 24.4477 71.3405 25.1802 70.8368 25.806C70.3332 26.4164 69.6846 26.8819 68.891 27.2024C68.1126 27.5229 67.2351 27.6831 66.2584 27.6831C65.0069 27.6831 63.931 27.3932 63.0306 26.8132C62.1301 26.2333 61.451 25.4778 60.9931 24.5469C60.5353 23.6159 60.3064 22.6163 60.3064 21.548C60.3064 20.4797 60.52 19.4801 60.9474 18.5491C61.3899 17.6182 62.0462 16.8703 62.9161 16.3057C63.786 15.7257 64.8467 15.4358 66.0981 15.4358C67.3343 15.4358 68.3874 15.7105 69.2573 16.2599C70.1272 16.8093 70.7758 17.5266 71.2031 18.4118C71.6457 19.2969 71.867 20.2355 71.867 21.2275C71.867 21.5785 71.8517 21.9295 71.8212 22.2806H61.9775V20.1058H68.7536C68.7078 19.6327 68.5781 19.213 68.3645 18.8467C68.1508 18.4652 67.8456 18.1676 67.4488 17.9539C67.0672 17.7402 66.617 17.6334 66.0981 17.6334C65.4724 17.6334 64.9306 17.786 64.4728 18.0913C64.0302 18.3965 63.6868 18.8391 63.4426 19.419C63.2137 19.999 63.0992 20.6934 63.0992 21.5022ZM78.8835 27.6831C77.7083 27.6831 76.6934 27.4313 75.8388 26.9277C74.9842 26.4088 74.3279 25.6839 73.8701 24.7529C73.4275 23.822 73.2062 22.7537 73.2062 21.548C73.2062 20.3423 73.4351 19.2817 73.893 18.366C74.3508 17.435 74.9994 16.7177 75.8388 16.2141C76.6934 15.6952 77.6931 15.4358 78.8377 15.4358C79.555 15.4358 80.2189 15.5807 80.8293 15.8707C81.4398 16.1454 81.9205 16.5117 82.2715 16.9695V10.8115H85.156V27.5H82.2715V26.1036C81.9968 26.5614 81.5466 26.943 80.9209 27.2482C80.3104 27.5382 79.6313 27.6831 78.8835 27.6831ZM79.2955 25.1879C79.9213 25.1879 80.4707 25.0429 80.9438 24.7529C81.4322 24.4477 81.8061 24.0204 82.0655 23.471C82.325 22.9215 82.4547 22.2806 82.4547 21.548C82.4547 20.8307 82.325 20.1974 82.0655 19.6479C81.8061 19.0985 81.4322 18.6788 80.9438 18.3889C80.4707 18.0836 79.9213 17.931 79.2955 17.931C78.6698 17.931 78.1204 18.0836 77.6473 18.3889C77.1742 18.6788 76.8003 19.0985 76.5256 19.6479C76.2661 20.1974 76.1364 20.8307 76.1364 21.548C76.1364 22.2653 76.2661 22.9063 76.5256 23.471C76.8003 24.0204 77.1742 24.4477 77.6473 24.7529C78.1204 25.0429 78.6698 25.1879 79.2955 25.1879ZM93.4079 27.6602C92.2023 27.6602 91.1187 27.4313 90.1572 26.9735C89.1957 26.5004 88.425 25.8289 87.8451 24.959C87.2652 24.089 86.9447 23.0742 86.8836 21.9143H89.9054C89.9512 22.4942 90.1343 23.0207 90.4548 23.4938C90.7753 23.9517 91.195 24.318 91.7139 24.5927C92.2328 24.8521 92.7975 24.9818 93.4079 24.9818C93.9879 24.9818 94.4991 24.8979 94.9417 24.73C95.3996 24.5469 95.7506 24.2951 95.9948 23.9746C96.2542 23.6541 96.3839 23.2878 96.3839 22.8758C96.3839 22.3416 96.2084 21.9066 95.8574 21.5709C95.5064 21.2351 95.018 20.9757 94.3923 20.7926L91.691 20.0371C90.3938 19.6708 89.3713 19.129 88.6234 18.4118C87.8909 17.6945 87.5246 16.6643 87.5246 15.3213C87.5246 14.4361 87.7688 13.6578 88.2572 12.9863C88.7455 12.2995 89.4247 11.7654 90.2946 11.3838C91.1645 10.987 92.1489 10.7886 93.2477 10.7886C94.4076 10.7886 95.4301 10.9946 96.3153 11.4067C97.2157 11.8035 97.9253 12.3758 98.4442 13.1236C98.9784 13.8562 99.276 14.7185 99.337 15.7105H96.3153C96.2084 15.0695 95.8803 14.543 95.3309 14.1309C94.7967 13.7036 94.1023 13.4899 93.2477 13.4899C92.4388 13.4899 91.8055 13.6502 91.3476 13.9706C90.8898 14.2911 90.6609 14.7337 90.6609 15.2984C90.6609 15.7715 90.8135 16.153 91.1187 16.443C91.4392 16.7177 91.9047 16.939 92.5151 17.1069L95.2164 17.8623C96.0863 18.1218 96.8265 18.4346 97.437 18.8009C98.0627 19.1672 98.5587 19.6785 98.925 20.3347C99.3065 20.9757 99.4973 21.7998 99.4973 22.8071C99.4973 23.7686 99.2455 24.6232 98.7418 25.371C98.2382 26.1036 97.5285 26.6682 96.6129 27.065C95.6972 27.4618 94.6289 27.6602 93.4079 27.6602ZM106.539 27.6831C105.257 27.6831 104.234 27.3474 103.471 26.6759C102.723 26.0044 102.349 25.0276 102.349 23.7457V18.0226H100.335V15.6189H102.349V12.1164H105.234V15.6189H108.004V18.0226H105.234V23.4481C105.234 23.9975 105.386 24.4248 105.692 24.73C105.997 25.0353 106.394 25.1879 106.882 25.1879C107.08 25.1879 107.271 25.1726 107.454 25.1421C107.653 25.1116 107.836 25.0734 108.004 25.0276V27.5229C107.576 27.6297 107.088 27.6831 106.539 27.6831ZM114.884 27.6831C113.724 27.6831 112.679 27.4161 111.748 26.8819C110.832 26.3478 110.115 25.6152 109.596 24.6842C109.077 23.7533 108.818 22.7079 108.818 21.548C108.818 20.3881 109.077 19.3427 109.596 18.4118C110.115 17.4808 110.832 16.7559 111.748 16.237C112.679 15.7028 113.724 15.4358 114.884 15.4358C116.044 15.4358 117.082 15.7028 117.998 16.237C118.929 16.7559 119.654 17.4808 120.172 18.4118C120.691 19.3274 120.951 20.3729 120.951 21.548C120.951 22.7079 120.691 23.7533 120.172 24.6842C119.654 25.6152 118.929 26.3478 117.998 26.8819C117.082 27.4161 116.044 27.6831 114.884 27.6831ZM114.884 25.1879C115.51 25.1879 116.052 25.0353 116.51 24.73C116.983 24.4248 117.349 23.9975 117.608 23.4481C117.883 22.8834 118.021 22.25 118.021 21.548C118.021 20.846 117.883 20.2202 117.608 19.6708C117.349 19.1214 116.975 18.6941 116.487 18.3889C116.014 18.0836 115.48 17.931 114.884 17.931C114.274 17.931 113.724 18.0836 113.236 18.3889C112.763 18.6941 112.397 19.1214 112.137 19.6708C111.893 20.2202 111.771 20.846 111.771 21.548C111.771 22.2653 111.893 22.8986 112.137 23.4481C112.397 23.9975 112.763 24.4248 113.236 24.73C113.709 25.0353 114.259 25.1879 114.884 25.1879ZM130.107 18.2515C129.741 18.1599 129.359 18.1142 128.962 18.1142C128.367 18.1142 127.825 18.2897 127.337 18.6407C126.864 18.9917 126.475 19.5487 126.169 20.3118C125.879 21.0596 125.734 21.9982 125.734 23.1276V27.5H122.85V15.6189H125.734V17.7937C125.994 17.1222 126.467 16.5651 127.154 16.1225C127.856 15.6647 128.573 15.4358 129.306 15.4358C129.641 15.4358 129.908 15.4586 130.107 15.5044V18.2515ZM122.85 25.0963H125.734V27.5H122.85V25.0963ZM122.85 15.6189H124.086V18.0226H122.85V15.6189ZM133.207 21.5022C133.207 22.6774 133.497 23.6007 134.077 24.2722C134.657 24.9284 135.443 25.2566 136.435 25.2566C137.106 25.2566 137.671 25.1116 138.129 24.8216C138.602 24.5316 138.907 24.1272 139.044 23.6083H141.906C141.769 24.4477 141.448 25.1802 140.945 25.806C140.441 26.4164 139.792 26.8819 138.999 27.2024C138.22 27.5229 137.343 27.6831 136.366 27.6831C135.115 27.6831 134.039 27.3932 133.138 26.8132C132.238 26.2333 131.559 25.4778 131.101 24.5469C130.643 23.6159 130.414 22.6163 130.414 21.548C130.414 20.4797 130.628 19.4801 131.055 18.5491C131.498 17.6182 132.154 16.8703 133.024 16.3057C133.894 15.7257 134.954 15.4358 136.206 15.4358C137.442 15.4358 138.495 15.7105 139.365 16.2599C140.235 16.8093 140.883 17.5266 141.311 18.4118C141.753 19.2969 141.975 20.2355 141.975 21.2275C141.975 21.5785 141.959 21.9295 141.929 22.2806H132.085V20.1058H138.861C138.816 19.6327 138.686 19.213 138.472 18.8467C138.258 18.4652 137.953 18.1676 137.556 17.9539C137.175 17.7402 136.725 17.6334 136.206 17.6334C135.58 17.6334 135.038 17.786 134.58 18.0913C134.138 18.3965 133.794 18.8391 133.55 19.419C133.321 19.999 133.207 20.6934 133.207 21.5022Z" fill="#0D1320"/>
<defs>
<filter id="filter0_dd_1174_1403" x="0" y="0.5" width="38" height="38" filterUnits="userSpaceOnUse" color-interpolation-filters="sRGB">
<feFlood flood-opacity="0" result="BackgroundImageFix"/>
<feColorMatrix in="SourceAlpha" type="matrix" values="0 0 0 0 0 0 0 0 0 0 0 0 0 0 0 0 0 0 127 0" result="hardAlpha"/>
<feOffset dy="1"/>
<feGaussianBlur stdDeviation="1"/>
<feColorMatrix type="matrix" values="0 0 0 0 0.0627451 0 0 0 0 0.0941176 0 0 0 0 0.156863 0 0 0 0.06 0"/>
<feBlend mode="normal" in2="BackgroundImageFix" result="effect1_dropShadow_1174_1403"/>
<feColorMatrix in="SourceAlpha" type="matrix" values="0 0 0 0 0 0 0 0 0 0 0 0 0 0 0 0 0 0 127 0" result="hardAlpha"/>
<feOffset dy="1"/>
<feGaussianBlur stdDeviation="1.5"/>
<feColorMatrix type="matrix" values="0 0 0 0 0.0627451 0 0 0 0 0.0941176 0 0 0 0 0.156863 0 0 0 0.1 0"/>
<feBlend mode="normal" in2="effect1_dropShadow_1174_1403" result="effect2_dropShadow_1174_1403"/>
<feBlend mode="normal" in="SourceGraphic" in2="effect2_dropShadow_1174_1403" result="shape"/>
</filter>
<filter id="filter1_dd_1174_1403" x="8" y="8.5" width="22" height="22" filterUnits="userSpaceOnUse" color-interpolation-filters="sRGB">
<feFlood flood-opacity="0" result="BackgroundImageFix"/>
<feColorMatrix in="SourceAlpha" type="matrix" values="0 0 0 0 0 0 0 0 0 0 0 0 0 0 0 0 0 0 127 0" result="hardAlpha"/>
<feOffset dy="1"/>
<feGaussianBlur stdDeviation="1"/>
<feColorMatrix type="matrix" values="0 0 0 0 0.0627451 0 0 0 0 0.0941176 0 0 0 0 0.156863 0 0 0 0.06 0"/>
<feBlend mode="normal" in2="BackgroundImageFix" result="effect1_dropShadow_1174_1403"/>
<feColorMatrix in="SourceAlpha" type="matrix" values="0 0 0 0 0 0 0 0 0 0 0 0 0 0 0 0 0 0 127 0" result="hardAlpha"/>
<feOffset dy="1"/>
<feGaussianBlur stdDeviation="1.5"/>
<feColorMatrix type="matrix" values="0 0 0 0 0.0627451 0 0 0 0 0.0941176 0 0 0 0 0.156863 0 0 0 0.1 0"/>
<feBlend mode="normal" in2="effect1_dropShadow_1174_1403" result="effect2_dropShadow_1174_1403"/>
<feBlend mode="normal" in="SourceGraphic" in2="effect2_dropShadow_1174_1403" result="shape"/>
</filter>
<linearGradient id="paint0_linear_1174_1403" x1="19" y1="2.5" x2="19" y2="34.5" gradientUnits="userSpaceOnUse">
<stop stop-color="white"/>
<stop offset="1" stop-color="#D0D5DD"/>
</linearGradient>
<linearGradient id="paint1_linear_1174_1403" x1="15" y1="26.5" x2="23" y2="10.5" gradientUnits="userSpaceOnUse">
<stop stop-color="#9E3839"/>
<stop offset="1" stop-color="#C64143"/>
</linearGradient>
<clipPath id="clip0_1174_1403">
<rect x="3" y="2.5" width="32" height="32" rx="8" fill="white"/>
</clipPath>
</defs>
</svg>
